<svg width="48" height="48" viewBox="0 0 240 240" fill="none" xmlns="http://www.w3.org/2000/svg">
  <path d="M46 60L70 130L74 118L83 138L95 100L105 130L112 100L119 120L124 100L136 130L154 70" stroke="white" stroke-width="12" stroke-linecap="round" stroke-linejoin="round"/>
  <path d="M63 170C63 159.5 72 155 81.5 155H112.5C122 155 125 162.5 125 167.5C125 179 115.5 180 109.5 180H92" stroke="white" stroke-width="10" stroke-linecap="round"/>
  <path d="M126 155H152C156.4 155 164 158.2 164 167C164 175.8 156.4 180 152 180H126" stroke="white" stroke-width="10" stroke-linecap="round"/>
  <path d="M169 155C169 155 179.5 154 188 155C196.5 156 203 161 203 168C203 175 193.5 180 186 180H169" stroke="white" stroke-width="10" stroke-linecap="round"/>
  <path d="M170 167.5H202" stroke="white" stroke-width="10" stroke-linecap="round"/>
</svg> 